<mxfile host="app.diagrams.net" modified="2023-09-06T23:02:16.543Z" agent="Mozilla/5.0 (X11; Linux x86_64; rv:109.0) Gecko/20100101 Firefox/115.0" etag="0EUJFfgy9gy1l6P_U3nM" version="21.7.2" type="device">
  <diagram id="C5RBs43oDa-KdzZeNtuy" name="Page-1">
    <mxGraphModel dx="954" dy="602" grid="1" gridSize="10" guides="1" tooltips="1" connect="1" arrows="1" fold="1" page="1" pageScale="1" pageWidth="827" pageHeight="1169" math="0" shadow="0">
      <root>
        <mxCell id="WIyWlLk6GJQsqaUBKTNV-0" />
        <mxCell id="WIyWlLk6GJQsqaUBKTNV-1" parent="WIyWlLk6GJQsqaUBKTNV-0" />
        <mxCell id="n_2UXWWxNj9zroZWcs07-0" value="&lt;div&gt;FIM&lt;/div&gt;" style="strokeWidth=2;html=1;shape=mxgraph.flowchart.terminator;whiteSpace=wrap;" vertex="1" parent="WIyWlLk6GJQsqaUBKTNV-1">
          <mxGeometry x="220" y="310" width="100" height="60" as="geometry" />
        </mxCell>
        <mxCell id="n_2UXWWxNj9zroZWcs07-3" value="" style="edgeStyle=orthogonalEdgeStyle;rounded=0;orthogonalLoop=1;jettySize=auto;html=1;" edge="1" parent="WIyWlLk6GJQsqaUBKTNV-1" source="n_2UXWWxNj9zroZWcs07-1" target="n_2UXWWxNj9zroZWcs07-2">
          <mxGeometry relative="1" as="geometry" />
        </mxCell>
        <mxCell id="n_2UXWWxNj9zroZWcs07-1" value="INICO" style="strokeWidth=2;html=1;shape=mxgraph.flowchart.terminator;whiteSpace=wrap;" vertex="1" parent="WIyWlLk6GJQsqaUBKTNV-1">
          <mxGeometry x="50" y="40" width="100" height="60" as="geometry" />
        </mxCell>
        <mxCell id="n_2UXWWxNj9zroZWcs07-5" value="" style="edgeStyle=orthogonalEdgeStyle;rounded=0;orthogonalLoop=1;jettySize=auto;html=1;" edge="1" parent="WIyWlLk6GJQsqaUBKTNV-1" source="n_2UXWWxNj9zroZWcs07-2" target="n_2UXWWxNj9zroZWcs07-4">
          <mxGeometry relative="1" as="geometry" />
        </mxCell>
        <mxCell id="n_2UXWWxNj9zroZWcs07-2" value="&lt;div&gt;Declare num1, num2 e resultado como float&lt;/div&gt;" style="rounded=0;whiteSpace=wrap;html=1;" vertex="1" parent="WIyWlLk6GJQsqaUBKTNV-1">
          <mxGeometry x="30" y="150" width="140" height="60" as="geometry" />
        </mxCell>
        <mxCell id="n_2UXWWxNj9zroZWcs07-9" value="" style="edgeStyle=orthogonalEdgeStyle;rounded=0;orthogonalLoop=1;jettySize=auto;html=1;" edge="1" parent="WIyWlLk6GJQsqaUBKTNV-1" source="n_2UXWWxNj9zroZWcs07-4" target="n_2UXWWxNj9zroZWcs07-7">
          <mxGeometry relative="1" as="geometry" />
        </mxCell>
        <mxCell id="n_2UXWWxNj9zroZWcs07-4" value="&quot;Escreva o primeiro número&quot;" style="shape=document;whiteSpace=wrap;html=1;boundedLbl=1;" vertex="1" parent="WIyWlLk6GJQsqaUBKTNV-1">
          <mxGeometry x="40" y="250" width="120" height="80" as="geometry" />
        </mxCell>
        <mxCell id="n_2UXWWxNj9zroZWcs07-11" value="" style="edgeStyle=orthogonalEdgeStyle;rounded=0;orthogonalLoop=1;jettySize=auto;html=1;" edge="1" parent="WIyWlLk6GJQsqaUBKTNV-1" source="n_2UXWWxNj9zroZWcs07-6" target="n_2UXWWxNj9zroZWcs07-8">
          <mxGeometry relative="1" as="geometry" />
        </mxCell>
        <mxCell id="n_2UXWWxNj9zroZWcs07-6" value="&lt;div&gt;&quot;Escreva o segundo número&quot;&lt;/div&gt;" style="shape=document;whiteSpace=wrap;html=1;boundedLbl=1;" vertex="1" parent="WIyWlLk6GJQsqaUBKTNV-1">
          <mxGeometry x="40" y="450" width="120" height="80" as="geometry" />
        </mxCell>
        <mxCell id="n_2UXWWxNj9zroZWcs07-10" value="" style="edgeStyle=orthogonalEdgeStyle;rounded=0;orthogonalLoop=1;jettySize=auto;html=1;" edge="1" parent="WIyWlLk6GJQsqaUBKTNV-1" source="n_2UXWWxNj9zroZWcs07-7" target="n_2UXWWxNj9zroZWcs07-6">
          <mxGeometry relative="1" as="geometry" />
        </mxCell>
        <mxCell id="n_2UXWWxNj9zroZWcs07-7" value="&lt;span style=&quot;white-space: pre;&quot;&gt;&#x9;&lt;/span&gt;LEIA num1&lt;span style=&quot;white-space: pre;&quot;&gt;&#x9;&lt;/span&gt;" style="shape=parallelogram;perimeter=parallelogramPerimeter;whiteSpace=wrap;html=1;fixedSize=1;size=10;" vertex="1" parent="WIyWlLk6GJQsqaUBKTNV-1">
          <mxGeometry x="40" y="360" width="120" height="60" as="geometry" />
        </mxCell>
        <mxCell id="n_2UXWWxNj9zroZWcs07-13" style="edgeStyle=orthogonalEdgeStyle;rounded=0;orthogonalLoop=1;jettySize=auto;html=1;entryX=0;entryY=0.5;entryDx=0;entryDy=0;" edge="1" parent="WIyWlLk6GJQsqaUBKTNV-1" source="n_2UXWWxNj9zroZWcs07-8" target="n_2UXWWxNj9zroZWcs07-12">
          <mxGeometry relative="1" as="geometry" />
        </mxCell>
        <mxCell id="n_2UXWWxNj9zroZWcs07-8" value="&#x9;LEIA num2&lt;span style=&quot;&quot;&gt;&lt;span style=&quot;white-space: pre;&quot;&gt;&amp;nbsp;&amp;nbsp;&amp;nbsp;&amp;nbsp;&lt;/span&gt;&lt;/span&gt;" style="shape=parallelogram;perimeter=parallelogramPerimeter;whiteSpace=wrap;html=1;fixedSize=1;size=10;" vertex="1" parent="WIyWlLk6GJQsqaUBKTNV-1">
          <mxGeometry x="40" y="560" width="120" height="60" as="geometry" />
        </mxCell>
        <mxCell id="n_2UXWWxNj9zroZWcs07-16" value="" style="edgeStyle=orthogonalEdgeStyle;rounded=0;orthogonalLoop=1;jettySize=auto;html=1;" edge="1" parent="WIyWlLk6GJQsqaUBKTNV-1" source="n_2UXWWxNj9zroZWcs07-12" target="n_2UXWWxNj9zroZWcs07-15">
          <mxGeometry relative="1" as="geometry" />
        </mxCell>
        <mxCell id="n_2UXWWxNj9zroZWcs07-12" value="resultado = num1/num2" style="rounded=0;whiteSpace=wrap;html=1;" vertex="1" parent="WIyWlLk6GJQsqaUBKTNV-1">
          <mxGeometry x="200" y="560" width="140" height="60" as="geometry" />
        </mxCell>
        <mxCell id="n_2UXWWxNj9zroZWcs07-17" value="" style="edgeStyle=orthogonalEdgeStyle;rounded=0;orthogonalLoop=1;jettySize=auto;html=1;" edge="1" parent="WIyWlLk6GJQsqaUBKTNV-1" source="n_2UXWWxNj9zroZWcs07-15" target="n_2UXWWxNj9zroZWcs07-0">
          <mxGeometry relative="1" as="geometry" />
        </mxCell>
        <mxCell id="n_2UXWWxNj9zroZWcs07-15" value="&quot;O Resultado da divisão entre {num1} e {num2} é {resultado} " style="shape=document;whiteSpace=wrap;html=1;boundedLbl=1;size=0.09090909090909091;" vertex="1" parent="WIyWlLk6GJQsqaUBKTNV-1">
          <mxGeometry x="210" y="420" width="120" height="110" as="geometry" />
        </mxCell>
      </root>
    </mxGraphModel>
  </diagram>
</mxfile>
